<svg version="1.1" xmlns="http://www.w3.org/2000/svg" viewBox="0 0 1304.2857142857142 728.6653058511869" width="1304.2857142857142" height="728.6653058511869">
  <!-- svg-source:excalidraw -->
  
  <defs>
    <style class="style-fonts">
      @font-face {
        font-family: "Virgil";
        src: url("https://excalidraw.com/Virgil.woff2");
      }
      @font-face {
        font-family: "Cascadia";
        src: url("https://excalidraw.com/Cascadia.woff2");
      }
      @font-face {
        font-family: "Assistant";
        src: url("https://excalidraw.com/Assistant-Regular.woff2");
      }
    </style>
    
  </defs>
  <rect x="0" y="0" width="1304.2857142857142" height="728.6653058511869" fill="#ffffff"></rect><g stroke-linecap="round" transform="translate(10 126.80000000000001) rotate(0 132.5 243.99999999999997)"><path d="M32 0 C77.8 0.51, 128.17 -4.47, 233 0 C255.42 1.8, 265.27 13.64, 265 32 C259.6 174, 260.29 318.95, 265 456 C261.96 479.49, 257.85 490.8, 233 488 C169.32 488.36, 106.94 486.4, 32 488 C7.17 488.96, 0.61 478.72, 0 456 C-3.07 325.56, -4.58 190.81, 0 32 C-2.94 8.68, 11.16 3.51, 32 0" stroke="none" stroke-width="0" fill="#fab005"></path><path d="M32 0 C75.89 -0.55, 119.7 -2, 233 0 M32 0 C82.47 1.23, 133.12 2.62, 233 0 M233 0 C253.66 0.84, 266.98 11.39, 265 32 M233 0 C253.96 -1.72, 265.8 12.43, 265 32 M265 32 C265.53 179.62, 263.94 328.29, 265 456 M265 32 C267.13 159.69, 266.88 287.08, 265 456 M265 456 C265.21 478.24, 252.9 487.55, 233 488 M265 456 C264.58 478.4, 253.16 487.14, 233 488 M233 488 C194.11 488.38, 152.18 490.04, 32 488 M233 488 C180.17 487.63, 126.49 486.12, 32 488 M32 488 C8.86 488.03, -0.77 478.83, 0 456 M32 488 C12.16 488.68, 1.57 478.82, 0 456 M0 456 C-1.2 362.13, -1.31 269.23, 0 32 M0 456 C1.06 293.45, 0.84 131.87, 0 32 M0 32 C1.86 10.26, 12.16 1.91, 32 0 M0 32 C-0.13 11.9, 9.99 -0.25, 32 0" stroke="#1e1e1e" stroke-width="2" fill="none"></path></g><g transform="translate(52.458335876464844 348.29999999999995) rotate(0 90.04166412353516 22.5)"><text x="90.04166412353516" y="0" font-family="Virgil, Segoe UI Emoji" font-size="36px" fill="#1e1e1e" text-anchor="middle" style="white-space: pre;" direction="ltr" dominant-baseline="text-before-edge">Application</text></g><g stroke-linecap="round" transform="translate(994.2857142857142 110) rotate(0 150 50)"><path d="M25 0 C95.12 -0.47, 166.46 -2.06, 275 0 C290.62 2.33, 298.58 7.2, 300 25 C296.97 36.05, 300 53.06, 300 75 C297.09 91.29, 292.65 101.44, 275 100 C222.56 99.23, 167.85 97.87, 25 100 C10.88 97.79, 0.54 88.99, 0 75 C-2.67 60.85, -0.02 43.67, 0 25 C-0.8 10.26, 6.55 -2.34, 25 0" stroke="none" stroke-width="0" fill="#d0bfff"></path><path d="M25 0 C78.3 -1.69, 132.14 -1.44, 275 0 M25 0 C124.2 -1.57, 223.01 -0.96, 275 0 M275 0 C292.22 -0.7, 300.63 8.4, 300 25 M275 0 C290.09 -1.53, 299.68 6.39, 300 25 M300 25 C300.56 41.18, 299.39 53.34, 300 75 M300 25 C300.22 37.78, 299.09 49.99, 300 75 M300 75 C298.06 92.23, 291.69 98.56, 275 100 M300 75 C301.27 90.83, 291.79 99.36, 275 100 M275 100 C217.14 99.56, 160.92 100.4, 25 100 M275 100 C180.65 100.56, 87.2 99.37, 25 100 M25 100 C7.81 101.75, 0.54 90.99, 0 75 M25 100 C8.39 97.79, -1.73 93.11, 0 75 M0 75 C-1.01 56.99, -0.19 37.71, 0 25 M0 75 C0.21 58.95, -0.88 40.06, 0 25 M0 25 C1.35 7.44, 7.88 1.7, 25 0 M0 25 C0.37 10.5, 8.23 0.32, 25 0" stroke="#1e1e1e" stroke-width="2" fill="none"></path></g><g transform="translate(1049.369050162179 115) rotate(0 94.91666412353516 45)"><text x="94.91666412353516" y="0" font-family="Virgil, Segoe UI Emoji" font-size="36px" fill="#1e1e1e" text-anchor="middle" style="white-space: pre;" direction="ltr" dominant-baseline="text-before-edge">Prometheus</text><text x="94.91666412353516" y="45" font-family="Virgil, Segoe UI Emoji" font-size="36px" fill="#1e1e1e" text-anchor="middle" style="white-space: pre;" direction="ltr" dominant-baseline="text-before-edge">(metrics)</text></g><g stroke-linecap="round" transform="translate(994.2857142857142 510) rotate(0 150 50)"><path d="M25 0 C96.16 -0.28, 164.98 -1.52, 275 0 C294.24 0.06, 300.06 10.21, 300 25 C299.19 40.16, 302.23 61.25, 300 75 C297.12 89.62, 292.7 99.24, 275 100 C194.05 104.41, 114.06 103.12, 25 100 C5.97 100.23, 2.99 95.15, 0 75 C2.58 62.31, 2.85 45.16, 0 25 C0.6 10.18, 5.71 0.53, 25 0" stroke="none" stroke-width="0" fill="#d0bfff"></path><path d="M25 0 C111.67 -1.58, 195.79 -1.97, 275 0 M25 0 C101.71 -1.7, 179.42 -2.61, 275 0 M275 0 C291.56 1.72, 300.76 10.33, 300 25 M275 0 C291.97 -2.22, 298.13 8.95, 300 25 M300 25 C298.27 40.74, 298.12 57.89, 300 75 M300 25 C299.5 40.2, 300.52 54.73, 300 75 M300 75 C300.62 91.11, 289.67 98.12, 275 100 M300 75 C298.06 92.19, 291.71 99.64, 275 100 M275 100 C213.23 100.01, 148.69 99.07, 25 100 M275 100 C187.43 100.04, 99.44 100.18, 25 100 M25 100 C9.26 98.76, -1.76 92.35, 0 75 M25 100 C6.65 100.08, -1.32 93.73, 0 75 M0 75 C1.29 62.07, -1.99 46.74, 0 25 M0 75 C-0.26 55.5, -0.78 37.26, 0 25 M0 25 C-1.06 8.26, 6.62 1.16, 25 0 M0 25 C-1.04 8.29, 7.21 -0.3, 25 0" stroke="#1e1e1e" stroke-width="2" fill="none"></path></g><g transform="translate(1086.6398822239466 515) rotate(0 57.64583206176758 45)"><text x="57.64583206176758" y="0" font-family="Virgil, Segoe UI Emoji" font-size="36px" fill="#1e1e1e" text-anchor="middle" style="white-space: pre;" direction="ltr" dominant-baseline="text-before-edge">Tempo</text><text x="57.64583206176758" y="45" font-family="Virgil, Segoe UI Emoji" font-size="36px" fill="#1e1e1e" text-anchor="middle" style="white-space: pre;" direction="ltr" dominant-baseline="text-before-edge">(traces)</text></g><g stroke-linecap="round" transform="translate(994.2857142857142 310) rotate(0 150 50)"><path d="M25 0 C107.55 2.55, 189.56 5.59, 275 0 C294.51 -1.99, 297.16 9.04, 300 25 C298.97 43.76, 299.83 61.56, 300 75 C301.48 92.35, 292.18 96.97, 275 100 C203.33 106.02, 131.33 102.5, 25 100 C6.67 97.26, -3.29 94.43, 0 75 C1.29 66.69, 2.16 57.02, 0 25 C3.08 11.2, 11.72 1, 25 0" stroke="none" stroke-width="0" fill="#d0bfff"></path><path d="M25 0 C118.64 3.01, 212.83 1.72, 275 0 M25 0 C115.4 -0.99, 204.91 0.16, 275 0 M275 0 C291.13 -1.79, 301.7 7.73, 300 25 M275 0 C292.16 0.83, 299.24 10.05, 300 25 M300 25 C299.68 43.83, 300.96 61.57, 300 75 M300 25 C299.65 40, 299.64 57.07, 300 75 M300 75 C299.77 91.37, 291.1 101.04, 275 100 M300 75 C299.86 90.83, 293 101.96, 275 100 M275 100 C207.63 100.02, 140.57 98.29, 25 100 M275 100 C211.28 99.15, 148.69 99.63, 25 100 M25 100 C10.28 101.25, -0.4 93.32, 0 75 M25 100 C9.33 99.94, 1.25 91.09, 0 75 M0 75 C1.09 64.99, -1.38 54.1, 0 25 M0 75 C-0.76 61.61, 0.73 47.11, 0 25 M0 25 C0.22 7.15, 8.2 1.37, 25 0 M0 25 C-1.39 10.32, 9 1.63, 25 0" stroke="#1e1e1e" stroke-width="2" fill="none"></path></g><g transform="translate(1100.3482142857142 315) rotate(0 43.9375 45)"><text x="43.9375" y="0" font-family="Virgil, Segoe UI Emoji" font-size="36px" fill="#1e1e1e" text-anchor="middle" style="white-space: pre;" direction="ltr" dominant-baseline="text-before-edge">Loki</text><text x="43.9375" y="45" font-family="Virgil, Segoe UI Emoji" font-size="36px" fill="#1e1e1e" text-anchor="middle" style="white-space: pre;" direction="ltr" dominant-baseline="text-before-edge">(logs)</text></g><g stroke-linecap="round" transform="translate(494.2857142857142 110) rotate(0 151.5 250)"><path d="M32 0 C105.77 -2.95, 174.53 -2.3, 271 0 C292.91 -1.18, 305.28 11.46, 303 32 C299.18 170.24, 300.01 307.92, 303 468 C301.17 488.74, 293.3 496.42, 271 500 C188.25 503.86, 109.72 506.17, 32 500 C12.62 503.37, 1.37 489.27, 0 468 C-1.65 313.77, -0.94 158.24, 0 32 C1.91 12.99, 9.35 -2.22, 32 0" stroke="none" stroke-width="0" fill="#a5d8ff"></path><path d="M32 0 C79.59 -0.37, 128.44 -0.12, 271 0 M32 0 C81.99 1.6, 131.15 1.96, 271 0 M271 0 C293.11 1.16, 303.11 9.13, 303 32 M271 0 C294.17 -2.24, 303.34 11.81, 303 32 M303 32 C302.42 204.5, 302.16 378.18, 303 468 M303 32 C304.3 195.85, 304.25 358.76, 303 468 M303 468 C303.68 488.89, 294.14 499.36, 271 500 M303 468 C303.38 489.57, 291.89 501.15, 271 500 M271 500 C202.15 500.28, 132.31 498.2, 32 500 M271 500 C218.08 501.03, 166.52 501.15, 32 500 M32 500 C9.85 498.12, -0.41 487.81, 0 468 M32 500 C8.73 501.92, 1.28 488.61, 0 468 M0 468 C1.76 364.95, 1.68 261.63, 0 32 M0 468 C-1.6 374.84, -1.03 282.1, 0 32 M0 32 C1.68 9.58, 11.5 -1.19, 32 0 M0 32 C1.86 11.42, 10.89 2.16, 32 0" stroke="#1e1e1e" stroke-width="2" fill="none"></path></g><g transform="translate(524.7440501621791 315) rotate(0 121.04166412353516 45)"><text x="121.04166412353516" y="0" font-family="Virgil, Segoe UI Emoji" font-size="36px" fill="#1e1e1e" text-anchor="middle" style="white-space: pre;" direction="ltr" dominant-baseline="text-before-edge">OpenTelemetry</text><text x="121.04166412353516" y="45" font-family="Virgil, Segoe UI Emoji" font-size="36px" fill="#1e1e1e" text-anchor="middle" style="white-space: pre;" direction="ltr" dominant-baseline="text-before-edge">collector</text></g><g stroke-linecap="round"><g transform="translate(274.2151771208138 370.99338304586706) rotate(0 109.53526858245021 0.5929076616731948)"><path d="M1 -0.99 C37.46 -1.01, 183.27 0.33, 219.48 0.74 M0.07 1.1 C36.33 1.17, 181.97 1.74, 218.74 2.05" stroke="#1e1e1e" stroke-width="2" fill="none"></path></g><g transform="translate(274.2151771208138 370.99338304586706) rotate(0 109.53526858245021 0.5929076616731948)"><path d="M195.2 10.46 C202.04 7.88, 211.51 2.76, 218.74 2.05 M195.2 10.46 C202.6 6.78, 209.52 5.03, 218.74 2.05" stroke="#1e1e1e" stroke-width="2" fill="none"></path></g><g transform="translate(274.2151771208138 370.99338304586706) rotate(0 109.53526858245021 0.5929076616731948)"><path d="M195.3 -6.64 C202.23 -3, 211.66 -1.91, 218.74 2.05 M195.3 -6.64 C202.83 -4.75, 209.71 -0.94, 218.74 2.05" stroke="#1e1e1e" stroke-width="2" fill="none"></path></g></g><mask></mask><g stroke-linecap="round"><g transform="translate(395.4777994545974 10.743187161162467) rotate(0 0 354.2857142857142)"><path d="M-1.19 -0.74 C-0.93 117.23, 0.55 589.42, 0.81 707.66" stroke="#ced4da" stroke-width="2.5" fill="none" stroke-dasharray="8 10"></path></g></g><mask></mask><g transform="translate(74.28571428571422 10) rotate(0 70.41666412353516 17.5)"><text x="0" y="0" font-family="Virgil, Segoe UI Emoji" font-size="28px" fill="#1971c2" text-anchor="start" style="white-space: pre;" direction="ltr" dominant-baseline="text-before-edge">Application</text></g><g transform="translate(454.2857142857142 10) rotate(0 173.3541717529297 17.5)"><text x="0" y="0" font-family="Virgil, Segoe UI Emoji" font-size="28px" fill="#1971c2" text-anchor="start" style="white-space: pre;" direction="ltr" dominant-baseline="text-before-edge">Signal collection/processing</text></g><g transform="translate(1054.2857142857142 10) rotate(0 88.02083587646484 17.5)"><text x="0" y="0" font-family="Virgil, Segoe UI Emoji" font-size="28px" fill="#1971c2" text-anchor="start" style="white-space: pre;" direction="ltr" dominant-baseline="text-before-edge">Signal storage</text></g><g stroke-linecap="round"><g transform="translate(893.6402154593754 9.733739801123761) rotate(0 0 354.2857142857142)"><path d="M0.88 0.27 C1.11 118.54, 0.63 590.83, 0.65 708.93" stroke="#ced4da" stroke-width="2.5" fill="none" stroke-dasharray="8 10"></path></g></g><mask></mask><g transform="translate(294.2857142857142 390) rotate(0 84.27083587646484 25)"><text x="84.27083587646484" y="0" font-family="Virgil, Segoe UI Emoji" font-size="20px" fill="#1971c2" text-anchor="middle" style="white-space: pre;" direction="ltr" dominant-baseline="text-before-edge">metrics/logs/traces</text><text x="84.27083587646484" y="25" font-family="Virgil, Segoe UI Emoji" font-size="20px" fill="#1971c2" text-anchor="middle" style="white-space: pre;" direction="ltr" dominant-baseline="text-before-edge">(OTLP format)</text></g><g stroke-linecap="round"><g transform="translate(798.2857142857142 349.6876642485887) rotate(0 97.5 -89.06023517198227)"><path d="M-0.08 0.49 C32.41 -29.31, 163.71 -148.11, 196.11 -178.03 M-1.59 -0.3 C30.75 -29.96, 162.68 -146.79, 195.74 -176.44" stroke="#1e1e1e" stroke-width="2" fill="none"></path></g><g transform="translate(798.2857142857142 349.6876642485887) rotate(0 97.5 -89.06023517198227)"><path d="M183.89 -154.43 C189.23 -161.23, 193.23 -172.92, 195.74 -176.44 M183.89 -154.43 C186.58 -158.58, 189.89 -165.06, 195.74 -176.44" stroke="#1e1e1e" stroke-width="2" fill="none"></path></g><g transform="translate(798.2857142857142 349.6876642485887) rotate(0 97.5 -89.06023517198227)"><path d="M172.52 -167.2 C182.41 -168.97, 190.89 -175.63, 195.74 -176.44 M172.52 -167.2 C177.84 -168.51, 183.69 -172.14, 195.74 -176.44" stroke="#1e1e1e" stroke-width="2" fill="none"></path></g></g><mask></mask><g stroke-linecap="round"><g transform="translate(794.2857142857142 370) rotate(0 100 0)"><path d="M0.76 -0.67 C34.12 -0.71, 166.36 0.59, 199.58 0.89 M-0.3 1.6 C32.92 1.73, 165.13 -0.39, 198.42 -0.76" stroke="#1e1e1e" stroke-width="2" fill="none"></path></g><g transform="translate(794.2857142857142 370) rotate(0 100 0)"><path d="M175.04 8.11 C179.72 5.04, 188.19 3.69, 198.42 -0.76 M175.04 8.11 C183.98 4.05, 192.94 1.05, 198.42 -0.76" stroke="#1e1e1e" stroke-width="2" fill="none"></path></g><g transform="translate(794.2857142857142 370) rotate(0 100 0)"><path d="M174.81 -8.99 C179.71 -7.76, 188.24 -4.82, 198.42 -0.76 M174.81 -8.99 C183.92 -6.29, 192.97 -2.52, 198.42 -0.76" stroke="#1e1e1e" stroke-width="2" fill="none"></path></g></g><mask></mask><g stroke-linecap="round"><g transform="translate(794.2857142857142 390) rotate(0 100 80)"><path d="M-0.99 -0.22 C32.08 26.16, 165.52 132.77, 199.07 159.38 M0.7 -1.38 C34.08 25.66, 168.12 133.61, 201.29 160.6" stroke="#1e1e1e" stroke-width="2" fill="none"></path></g><g transform="translate(794.2857142857142 390) rotate(0 100 80)"><path d="M177.65 152.47 C185.73 153.99, 193.45 158.93, 201.29 160.6 M177.65 152.47 C183.63 154.29, 190.17 156.8, 201.29 160.6" stroke="#1e1e1e" stroke-width="2" fill="none"></path></g><g transform="translate(794.2857142857142 390) rotate(0 100 80)"><path d="M188.4 139.17 C192.8 145.32, 196.71 154.97, 201.29 160.6 M188.4 139.17 C191.75 144.33, 195.53 150.25, 201.29 160.6" stroke="#1e1e1e" stroke-width="2" fill="none"></path></g></g><mask></mask></svg>